<svg id="Layer_1" data-name="Layer 1" xmlns="http://www.w3.org/2000/svg" viewBox="0 0 612 622"><defs><style>.cls-1{fill:#fff;}.cls-2{fill:#295b85;}.cls-3{fill:none;stroke:#295b85;stroke-linecap:round;stroke-miterlimit:10;stroke-width:11px;}</style></defs><title>mainbanner2</title><circle class="cls-1" cx="306.63" cy="311.3" r="285.37"/><rect class="cls-2" x="174.91" y="126.39" width="83.21" height="10.91" rx="5.46" ry="5.46"/><rect class="cls-2" x="174.91" y="247.25" width="83.21" height="10.91" rx="5.46" ry="5.46"/><rect class="cls-2" x="247.56" y="368.1" width="106.99" height="10.91" rx="5.46" ry="5.46"/><rect class="cls-2" x="174.91" y="186.49" width="102.36" height="10.91" rx="5.46" ry="5.46"/><rect class="cls-2" x="114.57" y="186.74" width="131.25" height="10.91" rx="5.46" ry="5.46" transform="translate(372.39 12) rotate(90)"/><rect class="cls-2" x="344.64" y="247.25" width="83.21" height="10.91" rx="5.46" ry="5.46"/><rect class="cls-2" x="344.64" y="368.1" width="83.21" height="10.91" rx="5.46" ry="5.46"/><rect class="cls-2" x="344.64" y="307.35" width="102.36" height="10.91" rx="5.46" ry="5.46"/><rect class="cls-2" x="284.3" y="307.59" width="131.25" height="10.91" rx="5.46" ry="5.46" transform="translate(662.97 -36.87) rotate(90)"/><rect class="cls-2" x="187.22" y="307.59" width="131.25" height="10.91" rx="5.46" ry="5.46" transform="translate(565.89 60.21) rotate(90)"/><path class="cls-3" d="M414.94,411.89a76.11,76.11,0,1,1-139,60.94"/></svg>